<?xml version="1.0" encoding="UTF-8" standalone="no"?>
<!-- Created with Inkscape (http://www.inkscape.org/) -->

<svg
   width="91.263885mm"
   height="22.76981mm"
   viewBox="0 0 91.263885 22.76981"
   version="1.1"
   id="svg5"
   inkscape:version="1.1.1 (3bf5ae0d25, 2021-09-20)"
   sodipodi:docname="logo.svg"
   xmlns:inkscape="http://www.inkscape.org/namespaces/inkscape"
   xmlns:sodipodi="http://sodipodi.sourceforge.net/DTD/sodipodi-0.dtd"
   xmlns="http://www.w3.org/2000/svg"
   xmlns:svg="http://www.w3.org/2000/svg">
  <sodipodi:namedview
     id="namedview7"
     pagecolor="#ffffff"
     bordercolor="#666666"
     borderopacity="1.0"
     inkscape:pageshadow="2"
     inkscape:pageopacity="0.0"
     inkscape:pagecheckerboard="0"
     inkscape:document-units="mm"
     showgrid="false"
     inkscape:zoom="0.64052329"
     inkscape:cx="-468.36705"
     inkscape:cy="122.55604"
     inkscape:window-width="2256"
     inkscape:window-height="1433"
     inkscape:window-x="0"
     inkscape:window-y="0"
     inkscape:window-maximized="1"
     inkscape:current-layer="layer1"
     fit-margin-top="1"
     fit-margin-left="1"
     fit-margin-right="1"
     fit-margin-bottom="1"
     lock-margins="false" />
  <defs
     id="defs2" />
  <g
     inkscape:label="Layer 1"
     inkscape:groupmode="layer"
     id="layer1"
     transform="translate(-68.150261,-116.13469)">
    <g
       aria-label="penick.io"
       id="text47790"
       style="font-size:22.5778px;line-height:0;stroke-width:0.264583">
      <path
         d="m 70.517275,137.9045 c 0.804775,0 1.37804,-0.51814 1.37804,-1.44418 v -4.65226 h 0.05512 c 0.639411,1.31189 1.962329,2.12769 3.660074,2.12769 2.932468,0 4.806602,-2.30408 4.806602,-6.0303 0,-3.73724 -1.885158,-6.04133 -4.8507,-6.04133 -1.697744,0 -3.020662,0.8599 -3.682121,2.21589 h -0.05512 v -0.83785 c 0,-0.90399 -0.56224,-1.41111 -1.344967,-1.41111 -0.782726,0 -1.333942,0.50712 -1.333942,1.41111 v 13.21816 c 0,0.92604 0.56224,1.44418 1.367014,1.44418 z m 4.211289,-6.21771 c -1.708769,0 -2.844273,-1.48828 -2.855298,-3.78134 0.01103,-2.27101 1.146529,-3.78134 2.855298,-3.78134 1.774915,0 2.877347,1.47726 2.877347,3.78134 0,2.31511 -1.102432,3.78134 -2.877347,3.78134 z"
         style="font-weight:600;line-height:1.25;font-family:'SF Pro Rounded';-inkscape-font-specification:'SF Pro Rounded Semi-Bold'"
         id="path241146" />
      <path
         d="m 87.373456,133.97985 c 2.226912,0 3.968754,-0.87092 4.740456,-2.35921 0.121268,-0.24253 0.187413,-0.48507 0.187413,-0.69453 0,-0.66146 -0.485069,-1.05833 -1.102431,-1.05833 -0.385851,0 -0.639411,0.12126 -0.926043,0.44097 -0.881945,1.12448 -1.68672,1.55443 -2.921444,1.55443 -1.785939,0 -2.921444,-1.25677 -2.921444,-3.20808 v -0.0882 h 6.890198 c 0.8158,0 1.278821,-0.48507 1.278821,-1.30087 0,-3.175 -2.182815,-5.44601 -5.379867,-5.44601 -3.37344,0 -5.523182,2.4033 -5.523182,6.12952 0,3.79236 2.105644,6.0303 5.677523,6.0303 z m -2.921444,-7.22093 c 0.110243,-1.6757 1.234723,-2.8112 2.778128,-2.8112 1.543404,0 2.623787,1.11346 2.678909,2.8112 z"
         style="font-weight:600;line-height:1.25;font-family:'SF Pro Rounded';-inkscape-font-specification:'SF Pro Rounded Semi-Bold'"
         id="path241148" />
      <path
         d="m 95.729887,133.96882 c 0.804776,0 1.37804,-0.51814 1.37804,-1.44418 v -5.54523 c 0,-1.6757 1.003213,-2.8112 2.57969,-2.8112 1.565453,0 2.337153,0.92604 2.337153,2.57969 v 5.77674 c 0,0.92604 0.57327,1.44418 1.37804,1.44418 0.80478,0 1.36702,-0.51814 1.36702,-1.44418 v -6.32796 c 0,-2.70096 -1.46624,-4.35461 -4.04593,-4.35461 -1.796961,0 -3.009636,0.80478 -3.638022,2.19384 h -0.05512 v -0.8158 c 0,-0.84887 -0.551216,-1.38906 -1.355991,-1.38906 -0.8158,0 -1.311894,0.54019 -1.311894,1.38906 v 9.30453 c 0,0.92604 0.56224,1.44418 1.367014,1.44418 z"
         style="font-weight:600;line-height:1.25;font-family:'SF Pro Rounded';-inkscape-font-specification:'SF Pro Rounded Semi-Bold'"
         id="path241150" />
      <path
         d="m 108.39683,120.41994 c 0.8599,0 1.53238,-0.66146 1.53238,-1.48828 0,-0.83785 -0.67248,-1.48829 -1.53238,-1.48829 -0.84887,0 -1.52136,0.65044 -1.52136,1.48829 0,0.82682 0.67249,1.48828 1.52136,1.48828 z m 0,13.54888 c 0.83785,0 1.37804,-0.55121 1.37804,-1.44418 v -9.23838 c 0,-0.89297 -0.54019,-1.45521 -1.37804,-1.45521 -0.83785,0 -1.36702,0.56224 -1.36702,1.44419 v 9.2494 c 0,0.89297 0.52917,1.44418 1.36702,1.44418 z"
         style="font-weight:600;line-height:1.25;font-family:'SF Pro Rounded';-inkscape-font-specification:'SF Pro Rounded Semi-Bold'"
         id="path241152" />
      <path
         d="m 117.21628,133.97985 c 2.20486,0 4.14514,-1.13551 4.79558,-2.73403 0.11024,-0.26459 0.16536,-0.4961 0.16536,-0.70556 0,-0.68351 -0.50712,-1.12448 -1.15755,-1.12448 -0.59531,0 -0.89297,0.23151 -1.2678,0.84887 -0.52916,0.93707 -1.27882,1.49931 -2.49149,1.49931 -1.74185,0 -2.87735,-1.43316 -2.87735,-3.85851 0,-2.39228 1.12448,-3.85851 2.88837,-3.85851 1.13551,0 1.90721,0.50712 2.4915,1.57648 0.3197,0.55121 0.65043,0.78272 1.20165,0.78272 0.66146,0 1.1796,-0.41892 1.1796,-1.10243 0,-0.19844 -0.0551,-0.42995 -0.14332,-0.66146 -0.56224,-1.64262 -2.51354,-2.82222 -4.8066,-2.82222 -3.40651,0 -5.60035,2.37022 -5.60035,6.09644 0,3.74827 2.20486,6.06338 5.6224,6.06338 z"
         style="font-weight:600;line-height:1.25;font-family:'SF Pro Rounded';-inkscape-font-specification:'SF Pro Rounded Semi-Bold'"
         id="path241154" />
      <path
         d="m 125.4735,133.96882 c 0.80477,0 1.36701,-0.51814 1.36701,-1.44418 v -2.78915 l 1.03629,-0.97014 3.50573,4.4428 c 0.39688,0.57326 0.71658,0.76067 1.25677,0.76067 0.76068,0 1.30087,-0.50712 1.30087,-1.2237 0,-0.35277 -0.0882,-0.59531 -0.37482,-0.99218 l -3.66008,-4.5751 3.32935,-3.15295 c 0.37482,-0.35278 0.49609,-0.60634 0.49609,-1.01424 0,-0.66146 -0.51814,-1.1796 -1.20165,-1.1796 -0.41892,0 -0.71658,0.15434 -1.06936,0.52917 l -4.58612,4.53099 h -0.0331 v -7.82726 c 0,-0.92605 -0.56224,-1.44419 -1.36701,-1.44419 -0.80478,0 -1.37804,0.51814 -1.37804,1.44419 v 13.46069 c 0,0.92604 0.57326,1.44418 1.37804,1.44418 z"
         style="font-weight:600;line-height:1.25;font-family:'SF Pro Rounded';-inkscape-font-specification:'SF Pro Rounded Semi-Bold'"
         id="path241156" />
      <path
         d="m 137.64434,133.8696 c 0.88195,0 1.57648,-0.69453 1.57648,-1.5875 0,-0.88194 -0.69453,-1.5875 -1.57648,-1.5875 -0.89297,0 -1.5875,0.70556 -1.5875,1.5875 0,0.89297 0.69453,1.5875 1.5875,1.5875 z"
         style="fill:#b3b3b3"
         id="path241158" />
      <path
         d="m 143.38801,120.46404 c 0.97014,0 1.71979,-0.73863 1.71979,-1.66468 0,-0.93706 -0.74965,-1.66467 -1.71979,-1.66467 -0.97014,0 -1.7198,0.72761 -1.7198,1.66467 0,0.92605 0.74966,1.66468 1.7198,1.66468 z m 0,13.51581 c 0.99219,0 1.60955,-0.62839 1.60955,-1.6757 v -8.9297 c 0,-1.04731 -0.61736,-1.68672 -1.60955,-1.68672 -1.00322,0 -1.60955,0.63941 -1.60955,1.68672 v 8.9297 c 0,1.04731 0.60633,1.6757 1.60955,1.6757 z"
         style="font-weight:bold;-inkscape-font-specification:'SF Pro Rounded Bold';fill:#ff5733"
         id="path241160" />
      <path
         d="m 152.56024,134.0019 c 3.57188,0 5.85391,-2.28204 5.85391,-6.17362 0,-3.83646 -2.3151,-6.15157 -5.85391,-6.15157 -3.53881,0 -5.85391,2.32613 -5.85391,6.15157 0,3.88056 2.28203,6.17362 5.85391,6.17362 z m 0,-2.45843 c -1.5875,0 -2.59071,-1.33394 -2.59071,-3.70417 0,-2.34818 1.02526,-3.70417 2.59071,-3.70417 1.56545,0 2.57969,1.35599 2.57969,3.70417 0,2.37023 -1.00321,3.70417 -2.57969,3.70417 z"
         style="font-weight:bold;-inkscape-font-specification:'SF Pro Rounded Bold';fill:#ff5733"
         id="path241162" />
    </g>
  </g>
</svg>
