<?xml version="1.0" encoding="UTF-8" standalone="no"?>
<!-- Created with Inkscape (http://www.inkscape.org/) -->

<svg
   width="106.13152mm"
   height="20.748064mm"
   viewBox="0 0 106.13153 20.748064"
   version="1.1"
   id="svg5"
   inkscape:version="1.1.1 (3bf5ae0d25, 2021-09-20)"
   sodipodi:docname="logo.svg"
   xmlns:inkscape="http://www.inkscape.org/namespaces/inkscape"
   xmlns:sodipodi="http://sodipodi.sourceforge.net/DTD/sodipodi-0.dtd"
   xmlns="http://www.w3.org/2000/svg"
   xmlns:svg="http://www.w3.org/2000/svg">
  <sodipodi:namedview
     id="namedview7"
     pagecolor="#ffffff"
     bordercolor="#666666"
     borderopacity="1.0"
     inkscape:pageshadow="2"
     inkscape:pageopacity="0.0"
     inkscape:pagecheckerboard="0"
     inkscape:document-units="mm"
     showgrid="false"
     inkscape:zoom="0.64052329"
     inkscape:cx="-516.76497"
     inkscape:cy="105.38258"
     inkscape:window-width="2256"
     inkscape:window-height="1433"
     inkscape:window-x="0"
     inkscape:window-y="0"
     inkscape:window-maximized="1"
     inkscape:current-layer="text47790"
     fit-margin-top="1"
     fit-margin-left="1"
     fit-margin-right="1"
     fit-margin-bottom="1"
     lock-margins="true" />
  <defs
     id="defs2" />
  <g
     inkscape:label="Layer 1"
     inkscape:groupmode="layer"
     id="layer1"
     transform="translate(-77.415835,-118.05309)">
    <g
       aria-label="penick.io"
       id="text47790"
       style="font-size:19.7556px;line-height:0;stroke-width:0.264583">
      <g
         aria-label="penick.io"
         id="text4532"
         style="line-height:1.25;font-family:'Source Code Pro';-inkscape-font-specification:'Source Code Pro';stroke-width:0.47">
        <path
           d="m 78.415835,137.80115 h 2.291649 v -3.04236 l -0.118533,-1.69898 h 0.05927 c 0.770468,0.73096 1.758248,1.14582 2.64725,1.14582 2.232383,0 4.306721,-1.91629 4.306721,-5.23523 0,-3.00285 -1.442159,-4.9389 -3.970876,-4.9389 -1.106313,0 -2.271894,0.57291 -3.101629,1.34338 h -0.05927 l -0.1778,-1.10631 h -1.876782 z m 4.405499,-5.4723 c -0.592668,0 -1.402648,-0.23707 -2.11385,-0.889 v -4.36599 c 0.790224,-0.80998 1.560693,-1.16558 2.29165,-1.16558 1.580448,0 2.252138,1.14583 2.252138,3.08188 0,2.19287 -1.047046,3.33869 -2.429938,3.33869 z"
           style="font-weight:600;-inkscape-font-specification:'Source Code Pro Semi-Bold';stroke:#ffffff"
           id="path145181" />
        <path
           d="m 94.931486,125.78975 c 1.382892,0 2.252138,0.79022 2.410183,2.37067 h -5.156211 c 0.296334,-1.56069 1.402647,-2.37067 2.746028,-2.37067 z m 0.237067,8.41588 c 1.422403,0 2.765784,-0.47413 3.793075,-1.14582 l -0.770468,-1.4224 c -0.869246,0.49389 -1.698982,0.80998 -2.726273,0.80998 -1.797759,0 -3.081873,-0.86925 -3.338696,-2.66701 h 7.131771 c 0.03951,-0.25682 0.09878,-0.69145 0.09878,-1.14583 0,-2.68676 -1.600203,-4.60305 -4.484521,-4.60305 -2.607739,0 -5.017922,1.91629 -5.017922,5.07719 0,3.22016 2.350916,5.09694 5.314256,5.09694 z"
           style="font-weight:600;-inkscape-font-specification:'Source Code Pro Semi-Bold';stroke:#ffffff"
           id="path145183" />
        <path
           d="m 102.12249,133.96857 h 2.29165 v -6.61813 c 0.88901,-0.90876 1.54094,-1.36314 2.48921,-1.36314 1.32362,0 1.81751,0.71121 1.81751,2.2719 v 5.70937 h 2.29165 v -6.00571 c 0,-2.50896 -1.02729,-3.93136 -3.25967,-3.93136 -1.48167,0 -2.58798,0.77047 -3.49674,1.69898 h -0.079 l -0.1778,-1.46191 h -1.87679 z"
           style="font-weight:600;-inkscape-font-specification:'Source Code Pro Semi-Bold';stroke:#ffffff"
           id="path145185" />
        <path
           d="m 118.22328,133.96857 h 2.27189 v -9.7 h -6.47983 v 1.79776 h 4.20794 z m 0.96802,-11.47801 c 0.92852,0 1.61996,-0.59266 1.61996,-1.52118 0,-0.90876 -0.69144,-1.54093 -1.61996,-1.54093 -0.92851,0 -1.61996,0.63217 -1.61996,1.54093 0,0.92852 0.69145,1.52118 1.61996,1.52118 z"
           style="font-weight:600;-inkscape-font-specification:'Source Code Pro Semi-Bold';stroke:#ffffff"
           id="path145187" />
        <path
           d="m 131.00512,134.20563 c 1.38289,0 2.8053,-0.49389 3.93136,-1.46191 l -0.94826,-1.46191 c -0.75072,0.57291 -1.65947,1.0668 -2.76579,1.0668 -1.91629,0 -3.22016,-1.28412 -3.22016,-3.22017 0,-1.9558 1.34338,-3.23991 3.27943,-3.23991 0.86925,0 1.63971,0.31609 2.39043,0.92851 l 1.08655,-1.4224 c -0.80998,-0.77047 -2.03482,-1.36314 -3.59551,-1.36314 -2.96334,0 -5.51182,1.85703 -5.51182,5.09694 0,3.22017 2.31141,5.07719 5.35377,5.07719 z"
           style="font-weight:600;-inkscape-font-specification:'Source Code Pro Semi-Bold';stroke:#ffffff"
           id="path145189" />
        <path
           d="m 137.84053,133.96857 h 2.29165 v -2.52872 l 1.83727,-1.89654 3.06212,4.42526 h 2.4892 l -4.18819,-5.82791 3.77332,-3.87209 h -2.52871 l -4.36599,4.48452 h -0.079 v -8.73198 h -2.29165 z"
           style="font-weight:600;-inkscape-font-specification:'Source Code Pro Semi-Bold';stroke:#ffffff"
           id="path145191" />
        <path
           d="m 153.84254,134.20563 c 1.36313,0 2.29164,-1.00753 2.29164,-2.3114 0,-1.30387 -0.92851,-2.33116 -2.29164,-2.33116 -1.36314,0 -2.29165,1.02729 -2.29165,2.33116 0,1.30387 0.92851,2.3114 2.29165,2.3114 z"
           style="font-weight:bold;-inkscape-font-specification:'Source Code Pro Bold';fill:#999999"
           id="path145193" />
        <path
           d="m 165.26124,133.96857 h 2.90407 v -9.79878 h -6.83544 v 2.27189 h 3.93137 z m 1.32362,-11.33972 c 1.12607,0 1.93605,-0.69144 1.93605,-1.75825 0,-1.0668 -0.80998,-1.81751 -1.93605,-1.81751 -1.12607,0 -1.93605,0.75071 -1.93605,1.81751 0,1.06681 0.80998,1.75825 1.93605,1.75825 z"
           style="font-weight:bold;-inkscape-font-specification:'Source Code Pro Bold';fill:#ff5733;stroke:#000000"
           id="path145195" />
        <path
           d="m 177.54919,134.20563 c 2.58799,0 4.99817,-1.87678 4.99817,-5.13645 0,-3.25968 -2.41018,-5.13646 -4.99817,-5.13646 -2.58798,0 -4.99816,1.87678 -4.99816,5.13646 0,3.25967 2.41018,5.13645 4.99816,5.13645 z m 0,-2.35091 c -1.34338,0 -2.01507,-1.08656 -2.01507,-2.78554 0,-1.69898 0.67169,-2.78554 2.01507,-2.78554 1.34338,0 2.01507,1.08656 2.01507,2.78554 0,1.69898 -0.67169,2.78554 -2.01507,2.78554 z"
           style="font-weight:bold;-inkscape-font-specification:'Source Code Pro Bold';fill:#ff5733;stroke:#000000"
           id="path145197" />
      </g>
    </g>
  </g>
</svg>
