<?xml version="1.0" encoding="UTF-8" standalone="no"?>
<!-- Created with Inkscape (http://www.inkscape.org/) -->

<svg
   xmlns:dc="http://purl.org/dc/elements/1.1/"
   xmlns:cc="http://creativecommons.org/ns#"
   xmlns:rdf="http://www.w3.org/1999/02/22-rdf-syntax-ns#"
   xmlns:svg="http://www.w3.org/2000/svg"
   xmlns="http://www.w3.org/2000/svg"
   xmlns:sodipodi="http://sodipodi.sourceforge.net/DTD/sodipodi-0.dtd"
   xmlns:inkscape="http://www.inkscape.org/namespaces/inkscape"
   width="63.503593mm"
   height="14.713156mm"
   viewBox="0 0 63.503592 14.713156"
   version="1.1"
   id="svg8"
   sodipodi:docname="logo.svg"
   inkscape:version="0.92.5 (2060ec1f9f, 2020-04-08)">
  <defs
     id="defs2" />
  <sodipodi:namedview
     id="base"
     pagecolor="#ffffff"
     bordercolor="#666666"
     borderopacity="1.0"
     inkscape:pageopacity="0.0"
     inkscape:pageshadow="2"
     inkscape:zoom="2.8"
     inkscape:cx="25.745513"
     inkscape:cy="158.16411"
     inkscape:document-units="mm"
     inkscape:current-layer="layer1"
     showgrid="false"
     inkscape:pagecheckerboard="true"
     fit-margin-top="2"
     fit-margin-left="2"
     fit-margin-right="2"
     fit-margin-bottom="2"
     inkscape:window-width="2560"
     inkscape:window-height="1550"
     inkscape:window-x="0"
     inkscape:window-y="26"
     inkscape:window-maximized="1" />
  <metadata
     id="metadata5">
    <rdf:RDF>
      <cc:Work
         rdf:about="">
        <dc:format>image/svg+xml</dc:format>
        <dc:type
           rdf:resource="http://purl.org/dc/dcmitype/StillImage" />
        <dc:title></dc:title>
      </cc:Work>
    </rdf:RDF>
  </metadata>
  <g
     inkscape:label="Layer 1"
     inkscape:groupmode="layer"
     id="layer1"
     transform="translate(-42.77093,-94.842962)">
    <g
       aria-label="penick.io"
       style="font-style:normal;font-weight:normal;font-size:10.58333302px;line-height:1.25;font-family:sans-serif;letter-spacing:0px;word-spacing:0px;fill:#000000;fill-opacity:1;stroke:none;stroke-width:0.40000001;stroke-miterlimit:4;stroke-dasharray:none"
       id="text817">
      <path
         d="m 44.658042,107.44323 h 1.659466 v -1.63689 l -0.07902,-0.9144 h 0.04516 c 0.395111,0.39511 0.880533,0.6096 1.377244,0.6096 1.253067,0 2.427111,-1.10631 2.427111,-3.02542 0,-1.7272 -0.846667,-2.844802 -2.246489,-2.844802 -0.598311,0 -1.2192,0.293511 -1.670755,0.699912 h -0.03387 l -0.124178,-0.564445 h -1.354666 z m 2.619022,-3.29636 c -0.282222,0 -0.643467,-0.1016 -0.959556,-0.37253 v -2.26907 c 0.349956,-0.36124 0.677334,-0.51929 1.038578,-0.51929 0.699911,0 1.027289,0.508 1.027289,1.51272 0,1.15146 -0.485422,1.64817 -1.106311,1.64817 z"
         style="font-style:normal;font-variant:normal;font-weight:bold;font-stretch:normal;font-family:'Source Code Pro';-inkscape-font-specification:'Source Code Pro Bold';stroke:#ffffff;stroke-opacity:1"
         id="path2862" />
      <path
         d="m 54.208424,100.89567 c 0.643467,0 1.027289,0.36125 1.106311,1.04987 h -2.393244 c 0.169333,-0.69991 0.632178,-1.04987 1.286933,-1.04987 z m 0.135467,4.60587 c 0.745066,0 1.580444,-0.24836 2.223911,-0.65476 l -0.553156,-1.00471 c -0.496711,0.25965 -0.936977,0.39511 -1.444977,0.39511 -0.9144,0 -1.512712,-0.36124 -1.670756,-1.17404 h 3.815644 c 0.02258,-0.13547 0.07902,-0.44027 0.07902,-0.74507 0,-1.524 -0.9144,-2.686752 -2.6416,-2.686752 -1.501423,0 -2.912534,1.095022 -2.912534,2.935112 0,1.86267 1.354667,2.93511 3.104445,2.93511 z"
         style="font-style:normal;font-variant:normal;font-weight:bold;font-stretch:normal;font-family:'Source Code Pro';-inkscape-font-specification:'Source Code Pro Bold';stroke:#ffffff;stroke-opacity:1"
         id="path2864" />
      <path
         d="m 58.204673,105.36607 h 1.659467 v -3.73662 c 0.395111,-0.38382 0.688622,-0.58702 1.140178,-0.58702 0.6096,0 0.824089,0.33867 0.824089,1.08373 v 3.23991 h 1.659466 v -3.4544 c 0,-1.41111 -0.564444,-2.280352 -1.8288,-2.280352 -0.835377,0 -1.444977,0.406402 -1.9304,0.880532 h -0.04516 L 59.55934,99.766785 h -1.354667 z"
         style="font-style:normal;font-variant:normal;font-weight:bold;font-stretch:normal;font-family:'Source Code Pro';-inkscape-font-specification:'Source Code Pro Bold';stroke:#ffffff;stroke-opacity:1"
         id="path2866" />
      <path
         d="m 67.303501,105.36607 h 1.659467 v -5.599285 h -3.905956 v 1.298225 h 2.246489 z m 0.756355,-6.479819 c 0.643467,0 1.106312,-0.395111 1.106312,-1.004711 0,-0.6096 -0.462845,-1.038578 -1.106312,-1.038578 -0.643466,0 -1.106311,0.428978 -1.106311,1.038578 0,0.6096 0.462845,1.004711 1.106311,1.004711 z"
         style="font-style:normal;font-variant:normal;font-weight:bold;font-stretch:normal;font-family:'Source Code Pro';-inkscape-font-specification:'Source Code Pro Bold';stroke:#ffffff;stroke-opacity:1"
         id="path2868" />
      <path
         d="m 74.810594,105.50154 c 0.767645,0 1.6256,-0.25964 2.302933,-0.82409 l -0.666044,-1.04987 c -0.4064,0.28223 -0.891822,0.53058 -1.478844,0.53058 -0.925689,0 -1.569156,-0.62089 -1.569156,-1.59173 0,-0.97085 0.666044,-1.59173 1.6256,-1.59173 0.417689,0 0.8128,0.13546 1.241778,0.44026 l 0.767644,-1.02729 c -0.474133,-0.440263 -1.2192,-0.756352 -2.099733,-0.756352 -1.7272,0 -3.239911,1.072442 -3.239911,2.935112 0,1.86267 1.354666,2.93511 3.115733,2.93511 z"
         style="font-style:normal;font-variant:normal;font-weight:bold;font-stretch:normal;font-family:'Source Code Pro';-inkscape-font-specification:'Source Code Pro Bold';stroke:#ffffff;stroke-opacity:1"
         id="path2870" />
      <path
         d="m 78.569778,105.36607 h 1.659467 v -1.41111 l 0.824089,-0.88053 1.467555,2.29164 h 1.794934 l -2.302934,-3.31893 2.1336,-2.280355 H 82.328978 L 80.2744,102.02456 h -0.04515 v -4.571998 h -1.659467 z"
         style="font-style:normal;font-variant:normal;font-weight:bold;font-stretch:normal;font-family:'Source Code Pro';-inkscape-font-specification:'Source Code Pro Bold';stroke:#ffffff;stroke-opacity:1"
         id="path2872" />
      <path
         d="m 87.871805,105.50154 c 0.643466,0 1.1176,-0.48542 1.1176,-1.14018 0,-0.65475 -0.474134,-1.14018 -1.1176,-1.14018 -0.643467,0 -1.1176,0.48543 -1.1176,1.14018 0,0.65476 0.474133,1.14018 1.1176,1.14018 z"
         style="font-size:11.28888893px;fill:#808080;stroke:none;stroke-width:0.40000001;stroke-miterlimit:4;stroke-dasharray:none;stroke-opacity:1"
         id="path2874" />
      <path
         d="m 94.23872,105.36607 h 1.941689 v -5.644441 h -4.086578 v 1.512711 h 2.144889 z m 0.903111,-6.412085 c 0.722489,0 1.241778,-0.451556 1.241778,-1.128889 0,-0.677334 -0.519289,-1.151467 -1.241778,-1.151467 -0.722489,0 -1.241778,0.474133 -1.241778,1.151467 0,0.677333 0.519289,1.128889 1.241778,1.128889 z"
         style="font-style:normal;font-variant:normal;font-weight:900;font-stretch:normal;font-size:11.28888893px;font-family:'Source Code Pro';-inkscape-font-specification:'Source Code Pro Heavy';fill:#ff5733;fill-opacity:1;stroke:#000000;stroke-width:0.40000001;stroke-miterlimit:4;stroke-dasharray:none;stroke-opacity:1"
         id="path2876" />
      <path
         d="m 101.41844,105.50154 c 1.49013,0 2.91253,-1.08373 2.91253,-2.95769 0,-1.87395 -1.4224,-2.957688 -2.91253,-2.957688 -1.490138,0 -2.912538,1.083738 -2.912538,2.957688 0,1.87396 1.4224,2.95769 2.912538,2.95769 z m 0,-1.55787 c -0.65476,0 -0.92569,-0.54186 -0.92569,-1.39982 0,-0.85795 0.27093,-1.39982 0.92569,-1.39982 0.65475,0 0.92568,0.54187 0.92568,1.39982 0,0.85796 -0.27093,1.39982 -0.92568,1.39982 z"
         style="font-style:normal;font-variant:normal;font-weight:900;font-stretch:normal;font-size:11.28888893px;font-family:'Source Code Pro';-inkscape-font-specification:'Source Code Pro Heavy';fill:#ff5733;fill-opacity:1;stroke:#000000;stroke-width:0.40000001;stroke-miterlimit:4;stroke-dasharray:none;stroke-opacity:1"
         id="path2878" />
    </g>
  </g>
</svg>
